<svg width="600" height="600" viewBox="0 0 600 600" fill="none" xmlns="http://www.w3.org/2000/svg">
<rect width="600" height="600" fill="url(#paint0_linear_2_3)"/>
<g filter="url(#filter0_ddii_2_3)">
<path d="M392.869 189.8C389.869 189.5 388.069 178.55 387.469 156.95C388.669 150.95 391.069 143.15 394.669 133.55C398.269 123.65 403.369 112.1 409.969 98.9C411.769 98.3 413.119 98 414.019 98C419.419 98 422.119 103.55 422.119 114.65C419.119 119.45 416.119 124.4 413.119 129.5C410.119 134.3 407.269 139.1 404.569 143.9C396.469 159.5 392.569 174.8 392.869 189.8ZM266.419 485C220.519 485 184.969 474.05 159.769 452.15C139.069 433.55 128.719 409.85 128.719 381.05C128.719 348.65 142.069 322.25 168.769 301.85C192.769 283.25 220.219 273.8 251.119 273.5C276.919 273.5 297.169 280.1 311.869 293.3C324.769 305.3 331.219 320 331.219 337.4C331.219 355.1 324.919 370.25 312.319 382.85C297.919 396.65 279.619 403.55 257.419 403.55C254.719 403.55 253.369 403.1 253.369 402.2C253.369 400.4 254.719 399.35 257.419 399.05C267.019 396.95 275.569 393.95 283.069 390.05C290.869 386.15 297.469 381.05 302.869 374.75C313.069 363.65 318.169 350.75 318.169 336.05C318.169 319.85 312.319 306.65 300.619 296.45C288.619 285.35 272.719 279.8 252.919 279.8C225.919 279.8 202.219 288.65 181.819 306.35C159.619 324.95 148.519 348.65 148.519 377.45C148.519 405.65 157.069 428.3 174.169 445.4C193.969 466.4 223.669 476.9 263.269 476.9C301.969 476.9 334.369 465.35 360.469 442.25C388.969 417.65 403.219 386.6 403.219 349.1C403.219 321.8 392.719 295.85 371.719 271.25L322.669 220.85C313.669 211.55 307.069 202.4 302.869 193.4C298.969 184.1 297.019 175.25 297.019 166.85C297.019 148.25 304.219 133.4 318.619 122.3C332.419 111.2 348.469 105.65 366.769 105.65C373.969 105.65 381.169 106.7 388.369 108.8C395.569 110.9 399.169 113.45 399.169 116.45C399.169 117.95 398.269 118.7 396.469 118.7C395.569 118.7 391.969 117.35 385.669 114.65C380.569 112.55 375.319 111.5 369.919 111.5C356.419 111.5 344.419 116.45 333.919 126.35C323.719 136.55 318.619 148.25 318.619 161.45C318.619 176.45 325.669 191.45 339.769 206.45L385.669 249.2C400.369 262.7 411.169 277.4 418.069 293.3C425.269 308.9 428.869 325.4 428.869 342.8C428.869 383 411.619 417.2 377.119 445.4C344.719 471.8 307.819 485 266.419 485ZM374.869 337.4C373.369 338 372.619 337.1 372.619 334.7C370.519 320 364.519 305 354.619 289.7C354.019 294.2 353.119 299.3 351.919 305C346.219 305.9 341.119 303.95 336.619 299.15C336.019 298.25 335.269 296.9 334.369 295.1C333.769 293.3 333.469 291.2 333.469 288.8V285.65C333.469 282.35 333.919 280.1 334.819 278.9C341.119 283.4 346.369 285.2 350.569 284.3C343.669 274.4 335.719 265.4 326.719 257.3C317.719 248.9 307.969 241.4 297.469 234.8C275.569 221.6 256.219 215 239.419 215C221.419 215 208.969 222.5 202.069 237.5C205.369 235.1 208.669 233.9 211.969 233.9C215.569 233.9 219.019 234.95 222.319 237.05C228.319 241.25 231.169 246.05 230.869 251.45C226.969 249.65 222.769 248.75 218.269 248.75C209.869 248.75 203.719 252.35 199.819 259.55C196.519 254.45 194.869 250.1 194.869 246.5C194.869 242 196.969 236.45 201.169 229.85C209.869 215.45 223.369 208.25 241.669 208.25C268.969 208.25 297.169 221.75 326.269 248.75C341.269 261.95 353.419 275.6 362.719 289.7C372.019 303.5 376.669 317.9 376.669 332.9V334.25C376.669 335.75 376.069 336.8 374.869 337.4Z" fill="#1D4D77" fill-opacity="0.1" shape-rendering="crispEdges"/>
</g>
<defs>
<filter id="filter0_ddii_2_3" x="124.719" y="98" width="308.15" height="395" filterUnits="userSpaceOnUse" color-interpolation-filters="sRGB">
<feFlood flood-opacity="0" result="BackgroundImageFix"/>
<feColorMatrix in="SourceAlpha" type="matrix" values="0 0 0 0 0 0 0 0 0 0 0 0 0 0 0 0 0 0 127 0" result="hardAlpha"/>
<feOffset dy="4"/>
<feGaussianBlur stdDeviation="2"/>
<feComposite in2="hardAlpha" operator="out"/>
<feColorMatrix type="matrix" values="0 0 0 0 0 0 0 0 0 0 0 0 0 0 0 0 0 0 0.25 0"/>
<feBlend mode="normal" in2="BackgroundImageFix" result="effect1_dropShadow_2_3"/>
<feColorMatrix in="SourceAlpha" type="matrix" values="0 0 0 0 0 0 0 0 0 0 0 0 0 0 0 0 0 0 127 0" result="hardAlpha"/>
<feOffset dy="4"/>
<feGaussianBlur stdDeviation="2"/>
<feComposite in2="hardAlpha" operator="out"/>
<feColorMatrix type="matrix" values="0 0 0 0 0 0 0 0 0 0 0 0 0 0 0 0 0 0 0.25 0"/>
<feBlend mode="normal" in2="effect1_dropShadow_2_3" result="effect2_dropShadow_2_3"/>
<feBlend mode="normal" in="SourceGraphic" in2="effect2_dropShadow_2_3" result="shape"/>
<feColorMatrix in="SourceAlpha" type="matrix" values="0 0 0 0 0 0 0 0 0 0 0 0 0 0 0 0 0 0 127 0" result="hardAlpha"/>
<feOffset dy="4"/>
<feGaussianBlur stdDeviation="2"/>
<feComposite in2="hardAlpha" operator="arithmetic" k2="-1" k3="1"/>
<feColorMatrix type="matrix" values="0 0 0 0 0 0 0 0 0 0 0 0 0 0 0 0 0 0 0.25 0"/>
<feBlend mode="normal" in2="shape" result="effect3_innerShadow_2_3"/>
<feColorMatrix in="SourceAlpha" type="matrix" values="0 0 0 0 0 0 0 0 0 0 0 0 0 0 0 0 0 0 127 0" result="hardAlpha"/>
<feOffset dy="4"/>
<feGaussianBlur stdDeviation="2"/>
<feComposite in2="hardAlpha" operator="arithmetic" k2="-1" k3="1"/>
<feColorMatrix type="matrix" values="0 0 0 0 0 0 0 0 0 0 0 0 0 0 0 0 0 0 0.25 0"/>
<feBlend mode="normal" in2="effect3_innerShadow_2_3" result="effect4_innerShadow_2_3"/>
</filter>
<linearGradient id="paint0_linear_2_3" x1="300" y1="0" x2="300" y2="600" gradientUnits="userSpaceOnUse">
<stop/>
<stop offset="1" stop-color="#194469"/>
</linearGradient>
</defs>
</svg>
