<svg width="600" height="600" viewBox="0 0 600 600" fill="none" xmlns="http://www.w3.org/2000/svg">
<g filter="url(#filter0_ddii_1_2)">
<path d="M405.869 151.8C402.869 151.5 401.069 140.55 400.469 118.95C401.669 112.95 404.069 105.15 407.669 95.55C411.269 85.65 416.369 74.1 422.969 60.9C424.769 60.3 426.119 60 427.019 60C432.419 60 435.119 65.55 435.119 76.65C432.119 81.45 429.119 86.4 426.119 91.5C423.119 96.3 420.269 101.1 417.569 105.9C409.469 121.5 405.569 136.8 405.869 151.8ZM279.419 447C233.519 447 197.969 436.05 172.769 414.15C152.069 395.55 141.719 371.85 141.719 343.05C141.719 310.65 155.069 284.25 181.769 263.85C205.769 245.25 233.219 235.8 264.119 235.5C289.919 235.5 310.169 242.1 324.869 255.3C337.769 267.3 344.219 282 344.219 299.4C344.219 317.1 337.919 332.25 325.319 344.85C310.919 358.65 292.619 365.55 270.419 365.55C267.719 365.55 266.369 365.1 266.369 364.2C266.369 362.4 267.719 361.35 270.419 361.05C280.019 358.95 288.569 355.95 296.069 352.05C303.869 348.15 310.469 343.05 315.869 336.75C326.069 325.65 331.169 312.75 331.169 298.05C331.169 281.85 325.319 268.65 313.619 258.45C301.619 247.35 285.719 241.8 265.919 241.8C238.919 241.8 215.219 250.65 194.819 268.35C172.619 286.95 161.519 310.65 161.519 339.45C161.519 367.65 170.069 390.3 187.169 407.4C206.969 428.4 236.669 438.9 276.269 438.9C314.969 438.9 347.369 427.35 373.469 404.25C401.969 379.65 416.219 348.6 416.219 311.1C416.219 283.8 405.719 257.85 384.719 233.25L335.669 182.85C326.669 173.55 320.069 164.4 315.869 155.4C311.969 146.1 310.019 137.25 310.019 128.85C310.019 110.25 317.219 95.4 331.619 84.3C345.419 73.2 361.469 67.65 379.769 67.65C386.969 67.65 394.169 68.7 401.369 70.8C408.569 72.9 412.169 75.45 412.169 78.45C412.169 79.95 411.269 80.7 409.469 80.7C408.569 80.7 404.969 79.35 398.669 76.65C393.569 74.55 388.319 73.5 382.919 73.5C369.419 73.5 357.419 78.45 346.919 88.35C336.719 98.55 331.619 110.25 331.619 123.45C331.619 138.45 338.669 153.45 352.769 168.45L398.669 211.2C413.369 224.7 424.169 239.4 431.069 255.3C438.269 270.9 441.869 287.4 441.869 304.8C441.869 345 424.619 379.2 390.119 407.4C357.719 433.8 320.819 447 279.419 447ZM387.869 299.4C386.369 300 385.619 299.1 385.619 296.7C383.519 282 377.519 267 367.619 251.7C367.019 256.2 366.119 261.3 364.919 267C359.219 267.9 354.119 265.95 349.619 261.15C349.019 260.25 348.269 258.9 347.369 257.1C346.769 255.3 346.469 253.2 346.469 250.8V247.65C346.469 244.35 346.919 242.1 347.819 240.9C354.119 245.4 359.369 247.2 363.569 246.3C356.669 236.4 348.719 227.4 339.719 219.3C330.719 210.9 320.969 203.4 310.469 196.8C288.569 183.6 269.219 177 252.419 177C234.419 177 221.969 184.5 215.069 199.5C218.369 197.1 221.669 195.9 224.969 195.9C228.569 195.9 232.019 196.95 235.319 199.05C241.319 203.25 244.169 208.05 243.869 213.45C239.969 211.65 235.769 210.75 231.269 210.75C222.869 210.75 216.719 214.35 212.819 221.55C209.519 216.45 207.869 212.1 207.869 208.5C207.869 204 209.969 198.45 214.169 191.85C222.869 177.45 236.369 170.25 254.669 170.25C281.969 170.25 310.169 183.75 339.269 210.75C354.269 223.95 366.419 237.6 375.719 251.7C385.019 265.5 389.669 279.9 389.669 294.9V296.25C389.669 297.75 389.069 298.8 387.869 299.4Z" fill="#1D4D77" fill-opacity="0.1" shape-rendering="crispEdges"/>
</g>
<g filter="url(#filter1_ddii_1_2)">
<path d="M394.05 162.6C391.383 162.333 389.783 152.6 389.25 133.4C390.317 128.067 392.45 121.133 395.65 112.6C398.85 103.8 403.383 93.5333 409.25 81.8C410.85 81.2667 412.05 81 412.85 81C417.65 81 420.05 85.9333 420.05 95.8C417.383 100.067 414.717 104.467 412.05 109C409.383 113.267 406.85 117.533 404.45 121.8C397.25 135.667 393.783 149.267 394.05 162.6ZM281.65 425C240.85 425 209.25 415.267 186.85 395.8C168.45 379.267 159.25 358.2 159.25 332.6C159.25 303.8 171.117 280.333 194.85 262.2C216.183 245.667 240.583 237.267 268.05 237C290.983 237 308.983 242.867 322.05 254.6C333.517 265.267 339.25 278.333 339.25 293.8C339.25 309.533 333.65 323 322.45 334.2C309.65 346.467 293.383 352.6 273.65 352.6C271.25 352.6 270.05 352.2 270.05 351.4C270.05 349.8 271.25 348.867 273.65 348.6C282.183 346.733 289.783 344.067 296.45 340.6C303.383 337.133 309.25 332.6 314.05 327C323.117 317.133 327.65 305.667 327.65 292.6C327.65 278.2 322.45 266.467 312.05 257.4C301.383 247.533 287.25 242.6 269.65 242.6C245.65 242.6 224.583 250.467 206.45 266.2C186.717 282.733 176.85 303.8 176.85 329.4C176.85 354.467 184.45 374.6 199.65 389.8C217.25 408.467 243.65 417.8 278.85 417.8C313.25 417.8 342.05 407.533 365.25 387C390.583 365.133 403.25 337.533 403.25 304.2C403.25 279.933 393.917 256.867 375.25 235L331.65 190.2C323.65 181.933 317.783 173.8 314.05 165.8C310.583 157.533 308.85 149.667 308.85 142.2C308.85 125.667 315.25 112.467 328.05 102.6C340.317 92.7333 354.583 87.8 370.85 87.8C377.25 87.8 383.65 88.7333 390.05 90.6C396.45 92.4667 399.65 94.7333 399.65 97.4C399.65 98.7333 398.85 99.4 397.25 99.4C396.45 99.4 393.25 98.2 387.65 95.8C383.117 93.9333 378.45 93 373.65 93C361.65 93 350.983 97.4 341.65 106.2C332.583 115.267 328.05 125.667 328.05 137.4C328.05 150.733 334.317 164.067 346.85 177.4L387.65 215.4C400.717 227.4 410.317 240.467 416.45 254.6C422.85 268.467 426.05 283.133 426.05 298.6C426.05 334.333 410.717 364.733 380.05 389.8C351.25 413.267 318.45 425 281.65 425ZM378.05 293.8C376.717 294.333 376.05 293.533 376.05 291.4C374.183 278.333 368.85 265 360.05 251.4C359.517 255.4 358.717 259.933 357.65 265C352.583 265.8 348.05 264.067 344.05 259.8C343.517 259 342.85 257.8 342.05 256.2C341.517 254.6 341.25 252.733 341.25 250.6V247.8C341.25 244.867 341.65 242.867 342.45 241.8C348.05 245.8 352.717 247.4 356.45 246.6C350.317 237.8 343.25 229.8 335.25 222.6C327.25 215.133 318.583 208.467 309.25 202.6C289.783 190.867 272.583 185 257.65 185C241.65 185 230.583 191.667 224.45 205C227.383 202.867 230.317 201.8 233.25 201.8C236.45 201.8 239.517 202.733 242.45 204.6C247.783 208.333 250.317 212.6 250.05 217.4C246.583 215.8 242.85 215 238.85 215C231.383 215 225.917 218.2 222.45 224.6C219.517 220.067 218.05 216.2 218.05 213C218.05 209 219.917 204.067 223.65 198.2C231.383 185.4 243.383 179 259.65 179C283.917 179 308.983 191 334.85 215C348.183 226.733 358.983 238.867 367.25 251.4C375.517 263.667 379.65 276.467 379.65 289.8V291C379.65 292.333 379.117 293.267 378.05 293.8Z" fill="#1D4D77"/>
</g>
<defs>
<filter id="filter0_ddii_1_2" x="137.719" y="60" width="308.15" height="395" filterUnits="userSpaceOnUse" color-interpolation-filters="sRGB">
<feFlood flood-opacity="0" result="BackgroundImageFix"/>
<feColorMatrix in="SourceAlpha" type="matrix" values="0 0 0 0 0 0 0 0 0 0 0 0 0 0 0 0 0 0 127 0" result="hardAlpha"/>
<feOffset dy="4"/>
<feGaussianBlur stdDeviation="2"/>
<feComposite in2="hardAlpha" operator="out"/>
<feColorMatrix type="matrix" values="0 0 0 0 0 0 0 0 0 0 0 0 0 0 0 0 0 0 0.25 0"/>
<feBlend mode="normal" in2="BackgroundImageFix" result="effect1_dropShadow_1_2"/>
<feColorMatrix in="SourceAlpha" type="matrix" values="0 0 0 0 0 0 0 0 0 0 0 0 0 0 0 0 0 0 127 0" result="hardAlpha"/>
<feOffset dy="4"/>
<feGaussianBlur stdDeviation="2"/>
<feComposite in2="hardAlpha" operator="out"/>
<feColorMatrix type="matrix" values="0 0 0 0 0 0 0 0 0 0 0 0 0 0 0 0 0 0 0.25 0"/>
<feBlend mode="normal" in2="effect1_dropShadow_1_2" result="effect2_dropShadow_1_2"/>
<feBlend mode="normal" in="SourceGraphic" in2="effect2_dropShadow_1_2" result="shape"/>
<feColorMatrix in="SourceAlpha" type="matrix" values="0 0 0 0 0 0 0 0 0 0 0 0 0 0 0 0 0 0 127 0" result="hardAlpha"/>
<feOffset dy="4"/>
<feGaussianBlur stdDeviation="2"/>
<feComposite in2="hardAlpha" operator="arithmetic" k2="-1" k3="1"/>
<feColorMatrix type="matrix" values="0 0 0 0 0 0 0 0 0 0 0 0 0 0 0 0 0 0 0.25 0"/>
<feBlend mode="normal" in2="shape" result="effect3_innerShadow_1_2"/>
<feColorMatrix in="SourceAlpha" type="matrix" values="0 0 0 0 0 0 0 0 0 0 0 0 0 0 0 0 0 0 127 0" result="hardAlpha"/>
<feOffset dy="4"/>
<feGaussianBlur stdDeviation="2"/>
<feComposite in2="hardAlpha" operator="arithmetic" k2="-1" k3="1"/>
<feColorMatrix type="matrix" values="0 0 0 0 0 0 0 0 0 0 0 0 0 0 0 0 0 0 0.25 0"/>
<feBlend mode="normal" in2="effect3_innerShadow_1_2" result="effect4_innerShadow_1_2"/>
</filter>
<filter id="filter1_ddii_1_2" x="155.25" y="81" width="274.8" height="352" filterUnits="userSpaceOnUse" color-interpolation-filters="sRGB">
<feFlood flood-opacity="0" result="BackgroundImageFix"/>
<feColorMatrix in="SourceAlpha" type="matrix" values="0 0 0 0 0 0 0 0 0 0 0 0 0 0 0 0 0 0 127 0" result="hardAlpha"/>
<feOffset dy="4"/>
<feGaussianBlur stdDeviation="2"/>
<feComposite in2="hardAlpha" operator="out"/>
<feColorMatrix type="matrix" values="0 0 0 0 0 0 0 0 0 0 0 0 0 0 0 0 0 0 0.25 0"/>
<feBlend mode="normal" in2="BackgroundImageFix" result="effect1_dropShadow_1_2"/>
<feColorMatrix in="SourceAlpha" type="matrix" values="0 0 0 0 0 0 0 0 0 0 0 0 0 0 0 0 0 0 127 0" result="hardAlpha"/>
<feOffset dy="4"/>
<feGaussianBlur stdDeviation="2"/>
<feComposite in2="hardAlpha" operator="out"/>
<feColorMatrix type="matrix" values="0 0 0 0 0 0 0 0 0 0 0 0 0 0 0 0 0 0 0.25 0"/>
<feBlend mode="normal" in2="effect1_dropShadow_1_2" result="effect2_dropShadow_1_2"/>
<feBlend mode="normal" in="SourceGraphic" in2="effect2_dropShadow_1_2" result="shape"/>
<feColorMatrix in="SourceAlpha" type="matrix" values="0 0 0 0 0 0 0 0 0 0 0 0 0 0 0 0 0 0 127 0" result="hardAlpha"/>
<feOffset dy="4"/>
<feGaussianBlur stdDeviation="2"/>
<feComposite in2="hardAlpha" operator="arithmetic" k2="-1" k3="1"/>
<feColorMatrix type="matrix" values="0 0 0 0 0 0 0 0 0 0 0 0 0 0 0 0 0 0 0.25 0"/>
<feBlend mode="normal" in2="shape" result="effect3_innerShadow_1_2"/>
<feColorMatrix in="SourceAlpha" type="matrix" values="0 0 0 0 0 0 0 0 0 0 0 0 0 0 0 0 0 0 127 0" result="hardAlpha"/>
<feOffset dy="4"/>
<feGaussianBlur stdDeviation="2"/>
<feComposite in2="hardAlpha" operator="arithmetic" k2="-1" k3="1"/>
<feColorMatrix type="matrix" values="0 0 0 0 0 0 0 0 0 0 0 0 0 0 0 0 0 0 0.25 0"/>
<feBlend mode="normal" in2="effect3_innerShadow_1_2" result="effect4_innerShadow_1_2"/>
</filter>
</defs>
</svg>
